<svg xmlns="http://www.w3.org/2000/svg" width="512" height="512" viewBox="0 0 512 512"><title>Scient</title><path fill="#4D9ABF" d="M246.52 503.73C322.54 503.73 398.52 472.32 450.13 416.07C466.31 398.44 479.95 378.48 490.23 356.87C504.47 326.92 512 294.26 512 261.08C512 202.62 488.73 147.89 450.06 104.62L333.58 192.97C352.59 209.3 365.24 231.31 365.24 256.84C365.24 264.88 363.92 272.9 361.49 280.56C353.87 304.57 335.92 324 315.22 337.68C302.61 346 288.77 352.41 274.43 357.12C252.98 364.16 230.36 367.42 207.81 367.42C144.42 367.42 79.37 341.09 38.3 291.94C51.12 245.52 84.95 208.33 126.66 185.49C141.61 177.3 157.54 170.95 173.99 166.49L133.96 24.13C113.08 31.57 93.13 41.67 75.12 54.6C30.61 86.56 0 134.65 0 190.5C0 203.99 1.92 217.48 5.55 230.47C6.56 234.12 7.76 237.7 8.94 241.3C10.33 245.59 11.69 249.9 13.01 254.22C17.27 268.19 21.1 282.28 24.41 296.5C27.45 309.56 30.06 322.72 32.22 335.96C32.78 339.43 33.32 342.9 33.82 346.37C34.32 349.86 34.78 353.34 35.42 356.8C37.03 365.59 39.46 374.22 42.63 382.58C50.2 402.52 61.98 420.71 76.55 436.24C107.28 469.02 149.4 489.55 193.1 498.43C210.67 502 228.6 503.73 246.52 503.73Z"/><path fill="#F09082" d="M83.61 48.8L138.98 179.25C167.41 166.05 198.67 158.99 230.02 158.99C243.69 158.99 257.39 160.37 270.75 163.28C300.99 169.86 331.16 184.81 349.7 210.34L485.44 155.35C449.63 87.4 383.84 39.82 310.53 19.49C283.73 12.06 255.95 8.27 228.13 8.27C177.59 8.27 126.26 21.19 83.61 48.8Z"/></svg>
