<svg xmlns="http://www.w3.org/2000/svg" width="20" height="20" viewBox="0 0 512 512"><title>Scient</title><mask id="scient-strip" maskUnits="userSpaceOnUse" x="0" y="0" width="512" height="512"><path fill="#fff" d="M237.55 512C270.93 512 304.32 506.55 335.96 495.95C343.61 493.39 351.13 490.49 358.56 487.36C365.76 484.34 372.85 481.11 379.81 477.57C407.78 463.35 433.61 444.67 455.04 421.71C463.16 413.01 470.64 403.71 477.31 393.86C478.76 391.73 480.17 389.57 481.53 387.38L483.55 384.1L484.73 381.79L486.64 377.87C488.71 373.55 490.66 369.17 492.49 364.73C505.34 333.6 512 300.13 512 266.45C512 234.51 505.93 202.65 494.45 172.85C492.74 168.41 490.91 164.02 488.97 159.68C488.06 157.64 487.15 155.6 486.16 153.6C485.51 152.28 484.8 150.99 484.1 149.7C482.53 146.8 480.9 143.94 479.22 141.1C472.47 129.74 464.81 118.93 456.39 108.75C435.16 83.08 409.16 61.51 380.48 44.64C375.58 41.75 370.6 39.01 365.55 36.39C363.15 35.15 360.73 33.96 358.31 32.77C350.25 28.8 342.12 25.13 333.76 21.83C297.33 7.48 258.2 0 219.05 0C173.85 0 128.22 10.04 88.28 31.51C74.28 39.04 61.01 47.98 48.93 58.32C42.39 63.91 36.2 69.91 30.44 76.3C29.3 77.56 28.17 78.84 27.06 80.14L25.56 81.96L24.85 83.26L23.33 86.15C21.42 89.87 19.63 93.64 17.95 97.47C11.96 111.19 7.5 125.56 4.52 140.22C3.61 144.67 2.82 149.14 2.22 153.63C1.79 156.76 1.46 159.91 1.17 163.06C0.38 171.49 0 179.96 0 188.43C0 202.39 1.11 216.36 3.3 230.14C4.12 235.32 5.17 240.46 6.18 245.61C7.04 250.03 7.88 254.45 8.7 258.87C11.39 273.45 13.8 288.07 15.91 302.74C18.31 319.46 20.31 336.24 21.9 353.05C22.65 360.93 23.19 368.84 24.2 376.69C24.44 378.57 24.71 380.44 24.99 382.3C25.12 383.14 25.25 383.98 25.4 384.81L25.6 385.81L26.21 387.81C39.13 428.56 70.77 460.04 107.55 480.38C123.55 489.23 140.63 496.09 158.19 501.12C183.95 508.51 210.78 512 237.55 512ZM198.15 384C131.76 384 66.25 353.4 25.6 300.56C47.74 213.43 132.13 153.6 220.75 153.6C241.32 153.6 262 156.93 281.31 164.1C293.85 168.76 305.83 175.06 316.54 183.11C341.72 202.03 358.4 229.73 358.4 261.76C358.4 274.37 355.7 286.9 350.85 298.52C340.45 323.49 320.7 343.56 297.83 357.51C288.12 363.43 277.79 368.32 267.1 372.2C245.06 380.22 221.57 384 198.15 384Z"/></mask><mask id="scient-front" maskUnits="userSpaceOnUse" x="0" y="0" width="512" height="512"><path fill="#fff" d="M176.87 505.77L188.97 383.8C136.13 381.49 84.5 360.18 46.22 323.53C40.65 318.2 35.38 312.55 30.45 306.62C29.33 305.28 28.22 303.91 27.14 302.54L25.67 300.65L25.17 299.7L24.41 298.16C23.5 296.3 22.61 294.41 21.75 292.52C16.86 281.71 12.84 270.52 9.63 259.11L15.91 302.76L16.43 306.38L17.51 314.33C18.59 322.49 19.57 330.66 20.46 338.85C21.35 347.09 22.15 355.35 22.85 363.61C23.29 368.76 23.81 373.89 24.51 379.01L25.1 383.05C25.25 383.99 25.38 384.95 25.61 385.86L26.32 388.14C26.83 389.73 27.37 391.31 27.94 392.88C31 401.35 34.93 409.49 39.57 417.2C60.56 452.09 95.13 477.05 132.39 492.22C146.77 498.08 161.69 502.54 176.87 505.77Z"/></mask><g mask="url(#scient-strip)"><g shape-rendering="crispEdges"><path fill="#52AEB5" d="M-13.7 97.7 -41.7 104.4 11.8 540.0 64.3 535.4 51.2 278.7Z"/><path fill="#52ADB6" d="M-17.3 108.9 -36.6 113.8 11.1 549.0 61.2 545.7 55.4 287.3Z"/><path fill="#52ACB8" d="M-26.2 121.5 -28.9 122.3 -8.5 372.4 25.3 557.1 59.3 554.1 61.1 294.8Z"/><path fill="#52ABB9" d="M-18.6 168.9 -7.5 383.6 43.9 564.3 56.5 562.9 68.5 301.5Z"/><path fill="#52AABA" d="M-10.6 202.6 -6.2 394.2 56.5 551.4 76.4 307.7Z"/><path fill="#53AABB" d="M-2.5 224.0 -3.7 403.4 59.5 535.3 84.8 313.8Z"/><path fill="#53A9BC" d="M7.2 239.9 -0.7 412.4 63.9 527.1 93.5 320.0Z"/><path fill="#54A8BD" d="M16.6 253.8 2.9 421.3 69.5 523.4 102.4 325.7Z"/><path fill="#55A7BE" d="M25.9 265.9 7.1 430.2 76.0 522.5 111.6 330.8Z"/><path fill="#56A7BE" d="M35.0 276.7 11.9 439.0 83.3 523.3 121.0 335.4Z"/><path fill="#56A6BF" d="M44.1 286.3 17.2 447.7 91.4 525.2 130.5 339.4Z"/><path fill="#57A5C0" d="M53.2 295.0 23.2 456.2 100.3 527.7 140.2 342.9Z"/><path fill="#58A5C0" d="M62.2 302.8 29.8 464.6 109.8 530.7 149.9 345.8Z"/><path fill="#58A4C1" d="M71.3 309.9 37.1 472.8 119.9 533.8 159.6 348.2Z"/><path fill="#59A4C1" d="M80.5 316.3 44.9 480.8 130.7 536.9 169.3 350.1Z"/><path fill="#59A3C1" d="M89.6 322.0 53.5 488.5 142.0 540.0 179.0 351.4Z"/><path fill="#5AA3C1" d="M98.7 327.1 62.6 495.9 153.8 542.8 188.5 352.3Z"/><path fill="#5AA3C2" d="M107.8 331.7 72.3 503.0 166.2 545.3 197.9 352.7Z"/><path fill="#5BA2C2" d="M116.8 335.7 82.7 509.7 178.9 547.5 207.1 352.6Z"/><path fill="#5BA2C2" d="M125.8 339.2 93.6 516.1 192.1 549.3 216.2 352.1Z"/><path fill="#5BA2C2" d="M134.8 342.2 105.2 521.9 204.6 550.5 224.3 351.1Z"/><path fill="#5BA2C2" d="M143.7 344.2 117.3 526.7 204.7 549.6 224.4 350.4Z"/><path fill="#5BA2C2" d="M152.5 345.7 129.9 531.0 204.8 548.7 224.4 349.7Z"/><path fill="#52AEB5" d="M22.4 348.1 23.2 367.2 15.4 275.0 9.3 256.7Z"/><path fill="#52ADB6" d="M22.6 358.1 24.1 377.3 19.1 284.2 12.3 266.5Z"/><path fill="#52ACB8" d="M23.2 368.2 25.5 386.9 23.1 293.0 15.7 275.9Z"/><path fill="#52ABB9" d="M24.2 378.3 28.1 395.4 28.3 301.5 19.4 285.1Z"/><path fill="#52AABA" d="M25.6 387.7 31.4 403.8 35.3 309.6 23.5 293.9Z"/><path fill="#53AABB" d="M28.4 396.2 35.3 412.2 42.7 317.3 29.0 302.3Z"/><path fill="#53A9BC" d="M31.7 404.7 39.8 420.4 50.5 324.6 36.1 310.4Z"/><path fill="#54A8BD" d="M35.7 413.0 45.0 428.4 58.6 331.4 43.5 318.0Z"/><path fill="#55A7BE" d="M40.3 421.2 50.8 436.3 67.0 337.8 51.3 325.3Z"/><path fill="#56A7BE" d="M45.6 429.2 57.2 444.0 75.7 343.8 59.4 332.1Z"/><path fill="#56A6BF" d="M51.4 437.1 64.2 451.4 84.6 349.3 67.8 338.4Z"/><path fill="#57A5C0" d="M57.9 444.7 71.8 458.5 93.7 354.4 76.5 344.4Z"/><path fill="#58A5C0" d="M65.0 452.1 80.0 465.4 102.9 359.0 85.5 349.8Z"/><path fill="#58A4C1" d="M72.6 459.2 88.8 471.9 112.4 363.1 94.6 354.9Z"/><path fill="#59A4C1" d="M80.9 466.0 98.0 478.1 121.9 366.8 103.9 359.4Z"/><path fill="#59A3C1" d="M89.7 472.5 107.9 483.8 131.5 370.0 113.3 363.5Z"/><path fill="#5AA3C1" d="M99.0 478.6 118.2 489.2 141.2 372.7 122.8 367.1Z"/><path fill="#5AA3C2" d="M108.9 484.4 129.0 494.1 150.8 375.0 132.5 370.3Z"/><path fill="#5BA2C2" d="M119.2 489.7 140.2 498.6 160.5 376.9 142.1 373.0Z"/><path fill="#5BA2C2" d="M130.1 494.6 151.9 502.6 170.1 378.3 151.8 375.2Z"/><path fill="#5BA2C2" d="M141.4 499.0 163.9 506.1 179.7 379.3 161.4 377.0Z"/><path fill="#5BA2C2" d="M153.1 503.0 176.3 509.1 189.1 379.8 171.1 378.4Z"/><path fill="#5BA2C2" d="M165.1 506.4 176.5 509.2 189.3 379.8 180.6 379.3Z"/></g><g shape-rendering="crispEdges"><path fill="#5BA2C2" d="M143.7 344.9 117.3 527.5 219.8 551.5 233.6 349.7Z"/><path fill="#5BA2C2" d="M152.4 347.1 129.8 532.4 234.0 551.8 242.0 348.0Z"/><path fill="#5BA2C2" d="M250.0 345.8 161.0 348.8 142.9 536.8 248.4 551.6Z"/><path fill="#5AA2C2" d="M257.7 343.4 169.5 350.1 156.4 540.7 263.1 550.7Z"/><path fill="#5AA3C2" d="M265.1 340.6 177.8 351.1 170.2 544.0 277.9 549.3Z"/><path fill="#5AA3C1" d="M272.2 337.5 185.9 351.7 184.5 546.7 292.8 547.2Z"/><path fill="#59A3C1" d="M278.9 334.2 193.9 352.0 199.0 548.8 307.8 544.4Z"/><path fill="#58A4C1" d="M285.2 330.6 201.7 352.0 213.9 550.2 322.8 541.0Z"/><path fill="#58A5C0" d="M291.2 326.8 209.2 351.7 228.9 551.0 337.7 536.9Z"/><path fill="#57A5C0" d="M296.9 322.8 216.6 351.1 244.1 551.1 352.6 532.2Z"/><path fill="#56A6BF" d="M302.1 318.5 223.7 350.2 259.5 550.5 367.2 526.7Z"/><path fill="#55A7BE" d="M307.0 314.1 230.6 349.1 274.9 549.3 381.7 520.6Z"/><path fill="#55A7BE" d="M311.5 309.6 237.3 347.8 290.4 547.3 395.9 513.8Z"/><path fill="#54A8BD" d="M315.6 305.0 243.7 346.2 305.8 544.6 410.0 506.4Z"/><path fill="#53A9BC" d="M319.3 300.2 249.9 344.5 321.1 541.2 424.0 498.3Z"/><path fill="#52AABA" d="M322.6 295.4 255.9 342.6 336.2 537.0 437.5 489.6Z"/><path fill="#52ABB9" d="M325.5 290.5 261.6 340.5 351.5 532.3 450.4 480.2Z"/><path fill="#52ACB8" d="M328.1 285.5 267.1 338.4 366.6 526.8 462.8 470.2Z"/><path fill="#52ADB6" d="M330.2 280.5 272.3 336.0 381.5 520.7 474.6 459.6Z"/><path fill="#52AEB5" d="M332.0 275.4 277.3 333.6 396.1 514.0 485.7 448.4Z"/><path fill="#52AFB3" d="M333.5 270.4 282.0 331.0 410.2 506.7 496.0 436.7Z"/><path fill="#53B0B1" d="M334.5 265.3 286.6 328.3 423.9 498.7 505.6 424.5Z"/><path fill="#54B1AF" d="M335.2 260.2 290.9 325.4 437.2 490.1 514.4 411.8Z"/><path fill="#55B2AC" d="M335.5 255.2 295.0 322.5 449.9 481.0 522.4 398.8Z"/><path fill="#57B3AA" d="M335.5 250.3 298.8 319.5 462.1 471.3 529.5 385.4Z"/><path fill="#59B4A8" d="M335.0 245.5 302.5 316.4 473.8 461.3 535.5 370.9Z"/><path fill="#5BB5A5" d="M334.1 241.0 305.9 313.1 485.5 451.2 540.2 354.1Z"/><path fill="#5EB6A3" d="M332.9 236.7 309.1 309.9 496.4 440.3 544.1 337.2Z"/><path fill="#61B6A0" d="M331.3 232.6 312.0 306.5 506.4 428.1 547.3 320.2Z"/><path fill="#64B79D" d="M329.5 228.7 314.7 303.3 515.2 413.4 550.0 303.2Z"/><path fill="#68B89A" d="M327.5 224.9 317.1 300.1 523.3 398.1 551.6 286.0Z"/><path fill="#6CB897" d="M325.1 221.3 319.4 296.8 530.4 382.4 552.3 268.7Z"/><path fill="#71B993" d="M322.6 218.0 321.5 293.5 536.6 366.2 551.9 251.4Z"/><path fill="#78B98F" d="M319.8 214.8 323.3 290.1 541.9 349.7 550.5 234.1Z"/><path fill="#7FBA8A" d="M316.9 211.8 325.0 286.7 546.3 332.9 548.1 216.9Z"/><path fill="#86BA85" d="M544.8 199.8 313.8 209.1 326.4 283.2 549.6 315.8Z"/><path fill="#8EBA81" d="M540.4 182.9 310.5 206.5 327.6 279.7 551.9 298.5Z"/><path fill="#97BA7C" d="M535.0 166.2 307.2 204.2 328.6 276.1 553.2 281.0Z"/><path fill="#A0BA77" d="M528.7 149.8 303.7 202.0 329.4 272.5 553.5 263.5Z"/><path fill="#A8B973" d="M521.4 133.7 300.1 200.0 329.9 268.9 552.8 245.9Z"/><path fill="#B1B870" d="M513.2 118.0 296.4 198.1 330.2 265.2 550.9 228.4Z"/><path fill="#BAB76D" d="M504.0 103.6 292.6 196.3 330.3 261.5 548.3 210.9Z"/><path fill="#C2B66C" d="M493.8 90.3 288.7 194.6 330.1 257.8 544.8 193.5Z"/><path fill="#CAB56B" d="M482.8 77.5 284.6 193.0 329.6 254.1 540.4 176.2Z"/><path fill="#D1B46C" d="M471.2 65.2 280.5 191.6 328.9 250.3 534.8 160.0Z"/><path fill="#D8B26E" d="M459.0 53.3 276.3 190.3 327.9 246.5 528.1 144.7Z"/><path fill="#DEB170" d="M446.2 42.1 272.1 189.2 326.6 242.7 520.4 129.7Z"/><path fill="#E4B073" d="M432.7 31.4 267.7 188.2 325.0 238.9 511.7 115.1Z"/><path fill="#E8AF77" d="M418.5 21.4 263.3 187.3 323.2 235.2 502.2 101.0Z"/><path fill="#ECAE7A" d="M403.9 12.1 258.8 186.5 321.1 231.6 491.8 87.3Z"/><path fill="#F0AE7E" d="M388.7 3.5 254.2 185.9 318.8 228.0 480.6 74.2Z"/><path fill="#F2AD81" d="M373.1 -4.4 249.5 185.3 316.2 224.5 468.6 61.6Z"/><path fill="#F4AD84" d="M357.0 -11.5 244.7 184.9 313.3 221.1 455.9 49.7Z"/><path fill="#F6AC87" d="M340.8 -17.9 239.8 184.5 310.2 217.7 442.4 38.5Z"/><path fill="#F6AC88" d="M324.6 -23.6 234.7 184.3 306.9 214.5 428.4 28.0Z"/><path fill="#F7AC89" d="M308.2 -28.5 229.5 184.2 303.3 211.4 413.8 18.2Z"/><path fill="#F7AC8A" d="M291.6 -32.5 224.1 184.3 299.4 208.4 398.8 9.1Z"/><path fill="#F8AC8A" d="M274.8 -35.6 218.6 184.5 295.3 205.5 383.8 0.8Z"/><path fill="#F8AC8B" d="M258.0 -37.9 213.0 184.9 290.9 202.8 368.4 -6.8Z"/><path fill="#F8AC8B" d="M241.2 -39.4 207.2 185.4 286.2 200.2 352.8 -13.7Z"/><path fill="#F8AC8B" d="M224.5 -40.1 201.3 186.1 281.3 197.7 336.8 -19.7Z"/><path fill="#F8AC8B" d="M207.9 -40.0 195.3 187.1 276.1 195.5 320.7 -25.0Z"/><path fill="#F8AC8B" d="M191.5 -39.0 189.2 188.2 270.8 193.4 304.5 -29.5Z"/><path fill="#F8AC8A" d="M175.3 -37.3 182.9 189.6 265.1 191.6 288.1 -33.1Z"/><path fill="#F7AC89" d="M271.8 -36.1 159.4 -34.9 176.6 191.2 259.3 189.9Z"/><path fill="#F7AC89" d="M255.5 -38.2 143.8 -31.6 170.1 193.1 253.2 188.5Z"/><path fill="#F6AC88" d="M239.2 -39.6 128.6 -27.7 163.6 195.3 246.9 187.3Z"/><path fill="#F5AD86" d="M223.1 -40.2 113.8 -23.1 157.0 197.7 240.4 186.4Z"/><path fill="#F3AD83" d="M207.2 -40.1 99.5 -17.8 150.3 200.5 233.7 185.8Z"/><path fill="#F1AD80" d="M191.5 -39.3 85.7 -11.8 143.6 203.5 226.8 185.4Z"/><path fill="#EEAE7C" d="M176.1 -37.9 72.4 -5.2 136.9 206.9 219.8 185.4Z"/><path fill="#EAAF78" d="M161.0 -35.8 59.8 1.9 130.1 210.6 212.6 185.6Z"/><path fill="#E5B074" d="M146.2 -33.0 47.7 9.6 123.4 214.6 205.2 186.2Z"/><path fill="#DFB171" d="M131.9 -29.7 36.4 17.8 116.7 219.0 197.8 187.2Z"/><path fill="#D9B26E" d="M117.9 -25.9 25.6 26.5 110.1 223.8 190.2 188.4Z"/><path fill="#D2B36C" d="M104.5 -21.5 15.6 35.6 103.6 229.0 182.6 190.1Z"/><path fill="#CAB56B" d="M91.5 -16.7 6.3 45.0 97.1 234.5 174.9 192.1Z"/><path fill="#C1B66C" d="M79.0 -11.5 -2.3 54.9 90.8 240.4 167.2 194.5Z"/><path fill="#B7B76E" d="M67.1 -5.9 -10.1 65.0 84.6 246.8 159.5 197.3Z"/><path fill="#ADB871" d="M55.1 -1.2 -15.6 75.9 78.4 253.8 151.8 200.5Z"/><path fill="#A3B976" d="M42.7 1.8 -18.7 87.4 72.1 261.4 144.2 204.1Z"/><path fill="#99BA7B" d="M30.2 3.8 -21.5 99.0 66.0 269.6 136.6 208.1Z"/><path fill="#8FBA80" d="M20.3 6.7 -24.2 110.1 60.2 278.4 129.0 212.6Z"/><path fill="#86BA86" d="M13.8 11.4 -26.8 120.7 54.7 287.8 121.5 217.7Z"/><path fill="#7DBA8B" d="M7.7 15.7 -29.0 131.2 49.5 297.9 114.2 223.3Z"/><path fill="#75B991" d="M1.8 19.2 -30.7 141.9 44.5 308.8 107.1 229.2Z"/><path fill="#6DB896" d="M-3.8 21.7 -32.0 152.5 39.9 320.6 100.4 235.5Z"/><path fill="#67B89B" d="M-9.6 22.1 -32.8 163.7 35.8 333.3 94.0 242.1Z"/><path fill="#63B79F" d="M-15.4 20.1 -33.2 175.3 32.1 347.2 87.9 249.2Z"/><path fill="#5FB6A2" d="M-21.3 14.7 -33.2 186.7 28.8 362.7 82.2 256.6Z"/><path fill="#5CB5A4" d="M-27.6 5.8 -32.8 198.0 26.0 380.2 76.9 264.3Z"/><path fill="#5AB4A7" d="M-26.3 13.2 -34.7 14.9 -32.0 209.2 23.7 400.4 72.1 272.3Z"/><path fill="#58B4A9" d="M-22.8 23.6 -41.4 27.3 -30.8 220.2 22.5 425.3 67.7 280.5Z"/><path fill="#57B3AB" d="M-18.6 33.7 -47.6 39.7 -29.2 231.1 24.3 460.4 63.7 288.8Z"/><path fill="#55B2AD" d="M-13.5 43.7 -53.3 52.1 -27.2 241.8 23.3 488.3 30.7 488.2 60.3 297.3Z"/><path fill="#54B1AE" d="M-8.0 53.5 -58.0 64.3 18.3 498.5 39.9 497.6 57.7 306.3Z"/><path fill="#53B0B0" d="M-2.5 63.8 -54.8 74.2 16.3 508.7 45.7 507.1 56.3 315.7Z"/><path fill="#52B0B2" d="M-2.2 74.5 -52.7 84.8 16.1 508.8 48.7 506.8 55.3 325.8 40.6 249.9Z"/><path fill="#52AFB3" d="M-3.2 85.3 -49.4 95.0 15.1 509.0 51.6 506.5 54.7 335.9 40.6 250.0Z"/><path fill="#5BA2C2" d="M153.2 503.0 176.4 509.1 189.2 379.8 171.1 378.4Z"/><path fill="#5BA2C2" d="M165.2 506.5 189.1 511.6 198.6 379.9 180.7 379.3Z"/><path fill="#5BA2C2" d="M177.7 509.4 202.1 513.4 207.8 379.7 190.2 379.8Z"/><path fill="#5AA2C2" d="M190.4 511.8 215.4 514.7 216.8 379.0 199.5 379.9Z"/><path fill="#5AA3C2" d="M203.4 513.6 228.8 515.5 225.7 378.0 208.7 379.6Z"/><path fill="#5AA3C1" d="M216.7 514.8 242.4 515.6 234.4 376.6 217.7 378.9Z"/><path fill="#59A3C1" d="M230.2 515.5 256.1 515.1 242.8 374.9 226.6 377.9Z"/><path fill="#58A4C1" d="M243.8 515.6 269.9 514.0 251.0 372.8 235.2 376.4Z"/><path fill="#58A5C0" d="M257.5 515.0 283.8 512.3 259.0 370.4 243.7 374.7Z"/><path fill="#57A5C0" d="M271.3 513.9 297.6 510.0 266.7 367.7 251.9 372.6Z"/><path fill="#56A6BF" d="M285.1 512.1 311.3 507.0 274.1 364.8 259.8 370.1Z"/><path fill="#55A7BE" d="M298.9 509.7 324.9 503.4 281.2 361.5 267.5 367.4Z"/><path fill="#55A7BE" d="M312.7 506.7 338.4 499.2 288.1 358.1 274.8 364.5Z"/><path fill="#54A8BD" d="M326.3 503.0 351.7 494.4 294.6 354.4 281.9 361.2Z"/><path fill="#53A9BC" d="M339.8 498.7 364.9 488.9 300.8 350.4 288.7 357.7Z"/><path fill="#52AABA" d="M353.0 493.8 378.0 482.9 306.7 346.3 295.2 354.0Z"/><path fill="#52ABB9" d="M366.2 488.3 390.7 476.3 312.2 342.0 301.4 350.0Z"/><path fill="#52ACB8" d="M379.3 482.2 403.1 469.1 317.4 337.5 307.2 345.9Z"/><path fill="#52ADB6" d="M392.0 475.6 415.0 461.3 322.3 332.9 312.7 341.6Z"/><path fill="#52AEB5" d="M404.3 468.3 426.4 453.0 326.8 328.2 317.9 337.1Z"/><path fill="#52AFB3" d="M416.2 460.5 437.3 444.2 331.0 323.3 322.7 332.5Z"/><path fill="#53B0B1" d="M427.5 452.2 447.7 435.0 334.8 318.3 327.2 327.7Z"/><path fill="#54B1AF" d="M438.4 443.3 457.4 425.2 338.3 313.3 331.4 322.8Z"/><path fill="#55B2AC" d="M448.7 434.0 466.5 415.0 341.4 308.1 335.1 317.8Z"/><path fill="#57B3AA" d="M458.4 424.2 474.9 404.4 344.2 302.9 338.6 312.8Z"/><path fill="#59B4A8" d="M467.4 414.0 482.7 393.4 346.6 297.7 341.7 307.6Z"/><path fill="#5BB5A5" d="M475.8 403.3 489.6 381.7 348.7 292.4 344.4 302.4Z"/><path fill="#5EB6A3" d="M483.4 392.3 495.9 368.0 350.5 287.1 346.8 297.2Z"/><path fill="#61B6A0" d="M490.3 380.3 501.3 353.9 351.9 281.8 348.9 291.9Z"/><path fill="#64B79D" d="M496.4 366.6 505.9 339.5 353.0 276.5 350.6 286.6Z"/><path fill="#68B89A" d="M501.8 352.5 509.7 324.9 353.8 271.2 352.0 281.3Z"/><path fill="#6CB897" d="M506.3 338.1 512.6 310.1 354.2 265.9 353.1 275.9Z"/><path fill="#71B993" d="M510.0 323.5 514.7 295.1 354.3 260.6 353.8 270.6Z"/><path fill="#78B98F" d="M512.9 308.6 515.9 280.0 354.1 255.4 354.2 265.4Z"/><path fill="#7FBA8A" d="M514.9 293.6 516.3 264.9 353.6 250.2 354.3 260.1Z"/><path fill="#86BA85" d="M516.0 278.5 515.7 249.7 352.7 245.1 354.0 254.9Z"/><path fill="#8EBA81" d="M516.3 263.4 514.3 234.6 351.6 240.1 353.5 249.7Z"/><path fill="#97BA7C" d="M515.6 248.2 512.0 219.5 350.1 235.1 352.6 244.6Z"/><path fill="#A0BA77" d="M514.1 233.0 508.8 204.5 348.4 230.2 351.4 239.6Z"/><path fill="#A8B973" d="M511.7 218.0 504.8 189.7 346.3 225.5 350.0 234.6Z"/><path fill="#B1B870" d="M508.5 203.0 499.9 175.2 344.0 220.8 348.2 229.8Z"/><path fill="#BAB76D" d="M504.3 188.3 494.2 160.8 341.4 216.2 346.1 225.0Z"/><path fill="#C2B66C" d="M499.3 173.7 487.6 147.3 338.5 211.7 343.8 220.3Z"/><path fill="#CAB56B" d="M493.5 159.4 480.3 134.7 335.3 207.4 341.1 215.7Z"/><path fill="#D1B46C" d="M486.9 146.1 472.2 122.5 331.9 203.1 338.2 211.3Z"/><path fill="#D8B26E" d="M479.5 133.5 463.3 110.6 328.2 199.1 335.0 206.9Z"/><path fill="#DEB170" d="M471.3 121.3 453.7 99.2 324.2 195.1 331.5 202.7Z"/><path fill="#E4B073" d="M462.4 109.5 443.5 88.2 320.0 191.3 327.8 198.7Z"/><path fill="#E8AF77" d="M452.7 98.1 432.6 77.8 315.5 187.7 323.8 194.7Z"/><path fill="#ECAE7A" d="M442.4 87.2 421.1 67.8 310.8 184.3 319.6 191.0Z"/><path fill="#F0AE7E" d="M431.4 76.7 409.0 58.4 305.8 181.0 315.1 187.4Z"/><path fill="#F2AD81" d="M419.9 66.8 396.4 49.6 300.6 177.9 310.3 183.9Z"/><path fill="#F4AD84" d="M407.7 57.5 383.3 41.4 295.2 175.0 305.3 180.7Z"/><path fill="#F6AC87" d="M395.1 48.8 369.7 33.8 289.5 172.3 300.1 177.6Z"/><path fill="#F6AC88" d="M381.9 40.6 355.9 26.9 283.6 169.8 294.6 174.7Z"/><path fill="#F7AC89" d="M368.4 33.1 342.0 20.7 277.6 167.5 288.9 172.0Z"/><path fill="#F7AC8A" d="M354.5 26.3 327.8 15.1 271.3 165.5 283.0 169.6Z"/><path fill="#F8AC8A" d="M340.6 20.1 313.4 10.2 264.8 163.7 276.9 167.3Z"/><path fill="#F8AC8B" d="M326.4 14.6 298.8 6.0 258.1 162.1 270.6 165.3Z"/><path fill="#F8AC8B" d="M312.0 9.7 284.1 2.5 251.2 160.8 264.1 163.5Z"/><path fill="#F8AC8B" d="M297.3 5.6 269.2 -0.2 244.2 159.7 257.4 161.9Z"/><path fill="#F8AC8B" d="M282.6 2.2 254.3 -2.3 237.0 158.9 250.5 160.7Z"/><path fill="#F8AC8B" d="M267.7 -0.5 239.4 -3.6 229.7 158.4 243.5 159.6Z"/><path fill="#F8AC8A" d="M252.8 -2.4 224.6 -4.2 222.2 158.2 236.3 158.9Z"/><path fill="#F7AC89" d="M238.0 -3.7 209.9 -4.1 214.7 158.3 229.0 158.4Z"/><path fill="#F7AC89" d="M223.1 -4.2 195.3 -3.3 207.0 158.7 221.5 158.2Z"/><path fill="#F6AC88" d="M208.4 -4.1 180.9 -1.9 199.2 159.4 213.9 158.3Z"/><path fill="#F5AD86" d="M193.9 -3.2 166.8 0.3 191.3 160.5 206.2 158.8Z"/><path fill="#F3AD83" d="M179.5 -1.7 152.9 3.1 183.4 161.8 198.4 159.5Z"/><path fill="#F1AD80" d="M165.4 0.5 139.4 6.5 175.4 163.5 190.5 160.6Z"/><path fill="#EEAE7C" d="M151.6 3.4 126.3 10.6 167.4 165.5 182.6 162.0Z"/><path fill="#EAAF78" d="M138.1 6.9 113.5 15.3 159.4 167.9 174.6 163.7Z"/><path fill="#E5B074" d="M125.0 11.0 101.2 20.5 151.3 170.7 166.6 165.8Z"/><path fill="#DFB171" d="M112.3 15.8 89.4 26.3 143.4 173.8 158.6 168.2Z"/><path fill="#D9B26E" d="M100.0 21.1 78.1 32.7 135.4 177.2 150.5 171.0Z"/><path fill="#D2B36C" d="M88.3 26.9 67.4 39.5 127.6 181.1 142.6 174.1Z"/><path fill="#CAB56B" d="M77.0 33.3 57.2 46.8 119.8 185.2 134.6 177.6Z"/><path fill="#C1B66C" d="M66.3 40.2 47.6 54.5 112.2 189.8 126.8 181.5Z"/><path fill="#B7B76E" d="M56.2 47.5 38.7 62.6 104.7 194.7 119.0 185.7Z"/><path fill="#ADB871" d="M46.7 55.3 30.4 71.1 97.3 200.0 111.4 190.3Z"/><path fill="#A3B976" d="M37.8 63.5 23.7 80.0 90.2 205.6 103.9 195.2Z"/><path fill="#99BA7B" d="M29.6 72.0 19.2 89.1 83.2 211.6 96.6 200.5Z"/><path fill="#8FBA80" d="M23.3 80.9 15.1 98.5 76.5 218.0 89.4 206.2Z"/><path fill="#86BA86" d="M18.8 90.0 11.4 108.1 70.1 224.7 82.5 212.2Z"/><path fill="#7DBA8B" d="M14.7 99.5 8.3 118.0 63.9 231.7 75.8 218.6Z"/><path fill="#75B991" d="M11.1 109.1 5.6 128.0 58.1 239.0 69.4 225.4Z"/><path fill="#6DB896" d="M8.0 119.0 3.4 138.1 52.5 246.7 63.3 232.4Z"/><path fill="#67B89B" d="M5.3 129.0 1.6 148.3 47.4 254.7 57.5 239.8Z"/><path fill="#63B79F" d="M3.2 139.1 0.3 159.0 42.6 262.9 52.0 247.5Z"/><path fill="#5FB6A2" d="M1.5 149.3 -0.5 170.1 38.3 271.5 46.9 255.5Z"/><path fill="#5CB5A4" d="M0.2 160.1 -0.8 181.2 34.4 280.3 42.2 263.8Z"/><path fill="#5AB4A7" d="M-0.5 171.2 -0.7 192.3 30.9 289.3 37.9 272.3Z"/><path fill="#58B4A9" d="M-0.8 182.3 -0.1 203.3 27.9 298.5 34.0 281.1Z"/><path fill="#57B3AB" d="M-0.7 193.4 0.9 214.2 25.5 308.0 30.6 290.2Z"/><path fill="#55B2AD" d="M-0.1 204.4 2.3 224.9 24.2 317.6 27.6 299.5Z"/><path fill="#54B1AE" d="M1.0 215.2 4.1 235.4 23.2 327.3 25.3 308.9Z"/><path fill="#53B0B0" d="M2.5 225.9 6.4 245.7 22.6 337.2 24.1 318.5Z"/><path fill="#52B0B2" d="M4.3 236.5 9.0 255.8 22.4 347.2 23.2 328.3Z"/><path fill="#52AFB3" d="M6.6 246.7 9.3 256.7 22.4 348.1 22.6 338.2Z"/></g><g mask="url(#scient-front)"><g shape-rendering="crispEdges"><path fill="#52AEB5" d="M-13.7 97.7 -41.7 104.4 11.8 540.0 64.3 535.4 51.2 278.7Z"/><path fill="#52ADB6" d="M-17.3 108.9 -36.6 113.8 11.1 549.0 61.2 545.7 55.4 287.3Z"/><path fill="#52ACB8" d="M-26.2 121.5 -28.9 122.3 -8.5 372.4 25.3 557.1 59.3 554.1 61.1 294.8Z"/><path fill="#52ABB9" d="M-18.6 168.9 -7.5 383.6 43.9 564.3 56.5 562.9 68.5 301.5Z"/><path fill="#52AABA" d="M-10.6 202.6 -6.2 394.2 56.5 551.4 76.4 307.7Z"/><path fill="#53AABB" d="M-2.5 224.0 -3.7 403.4 59.5 535.3 84.8 313.8Z"/><path fill="#53A9BC" d="M7.2 239.9 -0.7 412.4 63.9 527.1 93.5 320.0Z"/><path fill="#54A8BD" d="M16.6 253.8 2.9 421.3 69.5 523.4 102.4 325.7Z"/><path fill="#55A7BE" d="M25.9 265.9 7.1 430.2 76.0 522.5 111.6 330.8Z"/><path fill="#56A7BE" d="M35.0 276.7 11.9 439.0 83.3 523.3 121.0 335.4Z"/><path fill="#56A6BF" d="M44.1 286.3 17.2 447.7 91.4 525.2 130.5 339.4Z"/><path fill="#57A5C0" d="M53.2 295.0 23.2 456.2 100.3 527.7 140.2 342.9Z"/><path fill="#58A5C0" d="M62.2 302.8 29.8 464.6 109.8 530.7 149.9 345.8Z"/><path fill="#58A4C1" d="M71.3 309.9 37.1 472.8 119.9 533.8 159.6 348.2Z"/><path fill="#59A4C1" d="M80.5 316.3 44.9 480.8 130.7 536.9 169.3 350.1Z"/><path fill="#59A3C1" d="M89.6 322.0 53.5 488.5 142.0 540.0 179.0 351.4Z"/><path fill="#5AA3C1" d="M98.7 327.1 62.6 495.9 153.8 542.8 188.5 352.3Z"/><path fill="#5AA3C2" d="M107.8 331.7 72.3 503.0 166.2 545.3 197.9 352.7Z"/><path fill="#5BA2C2" d="M116.8 335.7 82.7 509.7 178.9 547.5 207.1 352.6Z"/><path fill="#5BA2C2" d="M125.8 339.2 93.6 516.1 192.1 549.3 216.2 352.1Z"/><path fill="#5BA2C2" d="M134.8 342.2 105.2 521.9 204.6 550.5 224.3 351.1Z"/><path fill="#5BA2C2" d="M143.7 344.2 117.3 526.7 204.7 549.6 224.4 350.4Z"/><path fill="#5BA2C2" d="M152.5 345.7 129.9 531.0 204.8 548.7 224.4 349.7Z"/><path fill="#52AEB5" d="M22.4 348.1 23.2 367.2 15.4 275.0 9.3 256.7Z"/><path fill="#52ADB6" d="M22.6 358.1 24.1 377.3 19.1 284.2 12.3 266.5Z"/><path fill="#52ACB8" d="M23.2 368.2 25.5 386.9 23.1 293.0 15.7 275.9Z"/><path fill="#52ABB9" d="M24.2 378.3 28.1 395.4 28.3 301.5 19.4 285.1Z"/><path fill="#52AABA" d="M25.6 387.7 31.4 403.8 35.3 309.6 23.5 293.9Z"/><path fill="#53AABB" d="M28.4 396.2 35.3 412.2 42.7 317.3 29.0 302.3Z"/><path fill="#53A9BC" d="M31.7 404.7 39.8 420.4 50.5 324.6 36.1 310.4Z"/><path fill="#54A8BD" d="M35.7 413.0 45.0 428.4 58.6 331.4 43.5 318.0Z"/><path fill="#55A7BE" d="M40.3 421.2 50.8 436.3 67.0 337.8 51.3 325.3Z"/><path fill="#56A7BE" d="M45.6 429.2 57.2 444.0 75.7 343.8 59.4 332.1Z"/><path fill="#56A6BF" d="M51.4 437.1 64.2 451.4 84.6 349.3 67.8 338.4Z"/><path fill="#57A5C0" d="M57.9 444.7 71.8 458.5 93.7 354.4 76.5 344.4Z"/><path fill="#58A5C0" d="M65.0 452.1 80.0 465.4 102.9 359.0 85.5 349.8Z"/><path fill="#58A4C1" d="M72.6 459.2 88.8 471.9 112.4 363.1 94.6 354.9Z"/><path fill="#59A4C1" d="M80.9 466.0 98.0 478.1 121.9 366.8 103.9 359.4Z"/><path fill="#59A3C1" d="M89.7 472.5 107.9 483.8 131.5 370.0 113.3 363.5Z"/><path fill="#5AA3C1" d="M99.0 478.6 118.2 489.2 141.2 372.7 122.8 367.1Z"/><path fill="#5AA3C2" d="M108.9 484.4 129.0 494.1 150.8 375.0 132.5 370.3Z"/><path fill="#5BA2C2" d="M119.2 489.7 140.2 498.6 160.5 376.9 142.1 373.0Z"/><path fill="#5BA2C2" d="M130.1 494.6 151.9 502.6 170.1 378.3 151.8 375.2Z"/><path fill="#5BA2C2" d="M141.4 499.0 163.9 506.1 179.7 379.3 161.4 377.0Z"/><path fill="#5BA2C2" d="M153.1 503.0 176.3 509.1 189.1 379.8 171.1 378.4Z"/><path fill="#5BA2C2" d="M165.1 506.4 176.5 509.2 189.3 379.8 180.6 379.3Z"/></g></g></g></svg>
